<?xml version="1.0" standalone="no"?><!DOCTYPE svg PUBLIC "-//W3C//DTD SVG 1.1//EN" "http://www.w3.org/Graphics/SVG/1.1/DTD/svg11.dtd"><svg t="1779065247413" class="icon" viewBox="0 0 1024 1024" version="1.1" xmlns="http://www.w3.org/2000/svg" p-id="6501" xmlns:xlink="http://www.w3.org/1999/xlink" width="16" height="16"><path d="M254.890667 582.286222a131.072 131.072 0 0 0-38.684445 93.411556c0 35.271111 13.795556 68.494222 38.684445 93.411555a131.072 131.072 0 0 0 93.411555 38.684445 131.328 131.328 0 0 0 93.383111-38.684445l59.420445-59.420444-186.823111-186.794667-59.392 59.392z m420.807111-366.08a131.328 131.328 0 0 0-93.411556 38.684445l-59.392 59.392 186.794667 186.823111 59.392-59.420445a131.498667 131.498667 0 0 0 38.712889-93.383111 131.328 131.328 0 0 0-38.684445-93.411555 131.072 131.072 0 0 0-93.411555-38.684445z" fill="#E6F1F0" p-id="6502"></path><path d="M578.901333 546.702222a8.021333 8.021333 0 0 0-11.292444 0l-66.588445 66.588445-90.311111-90.282667 66.702223-66.702222a8.021333 8.021333 0 0 0 0-11.320889l-36.408889-36.408889a8.049778 8.049778 0 0 0-11.292445 0l-66.702222 66.730667-43.008-43.008a7.907556 7.907556 0 0 0-5.688889-2.275556 8.448 8.448 0 0 0-5.688889 2.275556L206.791111 534.186667a199.452444 199.452444 0 0 0-58.595555 140.401777 199.338667 199.338667 0 0 0 34.304 113.095112l-76.088889 76.117333a8.049778 8.049778 0 0 0 0 11.292444l42.382222 42.382223c1.621333 1.621333 3.612444 2.332444 5.688889 2.332444a8.248889 8.248889 0 0 0 5.717333-2.304l76.117333-76.117333a199.253333 199.253333 0 0 0 112.071112 34.304c51.2 0 102.4-19.484444 141.511111-58.595556l101.916444-101.888a8.021333 8.021333 0 0 0 0-11.320889l-43.008-42.979555 66.702222-66.702223a8.021333 8.021333 0 0 0 0-11.320888l-36.608-36.181334z m-137.187555 222.407111a131.299556 131.299556 0 0 1-93.411556 38.684445 131.072 131.072 0 0 1-93.383111-38.684445A131.299556 131.299556 0 0 1 216.177778 675.697778c0-35.299556 13.710222-68.408889 38.684444-93.411556l59.420445-59.392 186.794666 186.794667-59.392 59.392zM917.703111 148.764444l-42.382222-42.382222a8.277333 8.277333 0 0 0-11.377778 0l-76.145778 76.088889a199.281778 199.281778 0 0 0-112.071111-34.304c-51.2 0-102.4 19.512889-141.511111 58.595556l-101.916444 101.916444a8.049778 8.049778 0 0 0 0 11.292445l271.701333 271.701333c1.592889 1.592889 3.612444 2.275556 5.688889 2.275555 2.019556 0 4.124444-0.768 5.717333-2.275555l101.888-101.916445a200.220444 200.220444 0 0 0 24.32-253.496888l76.088889-76.088889a8.135111 8.135111 0 0 0 0-11.377778zM769.137778 441.685333l-59.392 59.420445-186.794667-186.823111 59.392-59.392a131.328 131.328 0 0 1 93.383111-38.684445c35.299556 0 68.408889 13.681778 93.411556 38.684445a131.328 131.328 0 0 1 38.684444 93.411555 131.498667 131.498667 0 0 1-38.684444 93.383111z" fill="#047466" p-id="6503"></path></svg>